<mxfile host="app.diagrams.net" agent="Mozilla/5.0 (Macintosh; Intel Mac OS X 10_15_7) AppleWebKit/537.36 (KHTML, like Gecko) Chrome/136.0.0.0 Safari/537.36" version="27.0.1">
  <diagram name="Page-1" id="XxwaJJNGNkJeBLnIg9fg">
    <mxGraphModel dx="1991" dy="728" grid="1" gridSize="10" guides="1" tooltips="1" connect="1" arrows="1" fold="1" page="1" pageScale="1" pageWidth="850" pageHeight="1100" math="0" shadow="0">
      <root>
        <mxCell id="0" />
        <mxCell id="1" parent="0" />
        <mxCell id="3xgvSFUE_ccLqfkjxWqY-1" value="" style="rounded=0;whiteSpace=wrap;html=1;" vertex="1" parent="1">
          <mxGeometry x="500" y="440" width="120" height="60" as="geometry" />
        </mxCell>
        <mxCell id="3xgvSFUE_ccLqfkjxWqY-2" value="Display" style="text;html=1;align=center;verticalAlign=middle;whiteSpace=wrap;rounded=0;" vertex="1" parent="1">
          <mxGeometry x="520" y="410" width="60" height="30" as="geometry" />
        </mxCell>
        <mxCell id="3xgvSFUE_ccLqfkjxWqY-3" value="int floor;&lt;div&gt;Direction dr;&lt;/div&gt;" style="text;html=1;align=center;verticalAlign=middle;whiteSpace=wrap;rounded=0;" vertex="1" parent="1">
          <mxGeometry x="515" y="450" width="70" height="30" as="geometry" />
        </mxCell>
        <mxCell id="3xgvSFUE_ccLqfkjxWqY-4" value="" style="rounded=0;whiteSpace=wrap;html=1;" vertex="1" parent="1">
          <mxGeometry x="500" y="640" width="140" height="180" as="geometry" />
        </mxCell>
        <mxCell id="3xgvSFUE_ccLqfkjxWqY-5" value="&lt;div&gt;int id;&lt;/div&gt;Display dis;&lt;div&gt;int currentFloor;&lt;/div&gt;&lt;div&gt;Direction dir;&lt;/div&gt;&lt;div&gt;Staus status;&lt;/div&gt;&lt;div&gt;InternalButton obj;&lt;/div&gt;&lt;div&gt;Door door;&lt;/div&gt;&lt;div&gt;&lt;br&gt;&lt;/div&gt;" style="text;html=1;align=center;verticalAlign=middle;whiteSpace=wrap;rounded=0;" vertex="1" parent="1">
          <mxGeometry x="520" y="640" width="100" height="120" as="geometry" />
        </mxCell>
        <mxCell id="3xgvSFUE_ccLqfkjxWqY-7" value="" style="endArrow=none;html=1;rounded=0;exitX=0.007;exitY=0.446;exitDx=0;exitDy=0;exitPerimeter=0;entryX=0.996;entryY=0.446;entryDx=0;entryDy=0;entryPerimeter=0;" edge="1" parent="1">
          <mxGeometry width="50" height="50" relative="1" as="geometry">
            <mxPoint x="500" y="749.9999999999999" as="sourcePoint" />
            <mxPoint x="638.46" y="749.9999999999999" as="targetPoint" />
          </mxGeometry>
        </mxCell>
        <mxCell id="3xgvSFUE_ccLqfkjxWqY-8" value="move(int desFloor, Direction dir);" style="text;html=1;align=center;verticalAlign=middle;whiteSpace=wrap;rounded=0;" vertex="1" parent="1">
          <mxGeometry x="505" y="765" width="130" height="30" as="geometry" />
        </mxCell>
        <mxCell id="3xgvSFUE_ccLqfkjxWqY-9" value="enum Direction {&lt;div&gt;UP,&lt;/div&gt;&lt;div&gt;DOWN&lt;/div&gt;&lt;div&gt;}&lt;/div&gt;&lt;div&gt;&lt;br&gt;&lt;/div&gt;" style="text;html=1;align=center;verticalAlign=middle;whiteSpace=wrap;rounded=0;" vertex="1" parent="1">
          <mxGeometry x="730" y="520" width="100" height="80" as="geometry" />
        </mxCell>
        <mxCell id="3xgvSFUE_ccLqfkjxWqY-10" value="enum ElevatorStatus {&lt;div&gt;MOVING,&lt;/div&gt;&lt;div&gt;IDLE&lt;/div&gt;&lt;div&gt;}&lt;/div&gt;&lt;div&gt;&lt;br&gt;&lt;/div&gt;" style="text;html=1;align=center;verticalAlign=middle;whiteSpace=wrap;rounded=0;" vertex="1" parent="1">
          <mxGeometry x="720" y="430" width="100" height="80" as="geometry" />
        </mxCell>
        <mxCell id="3xgvSFUE_ccLqfkjxWqY-11" value="Elevator Car" style="text;html=1;align=center;verticalAlign=middle;whiteSpace=wrap;rounded=0;" vertex="1" parent="1">
          <mxGeometry x="525" y="610" width="90" height="30" as="geometry" />
        </mxCell>
        <mxCell id="3xgvSFUE_ccLqfkjxWqY-12" value="" style="edgeStyle=elbowEdgeStyle;elbow=horizontal;endArrow=classic;html=1;curved=0;rounded=0;endSize=8;startSize=8;exitX=1;exitY=0.25;exitDx=0;exitDy=0;entryX=1;entryY=0.75;entryDx=0;entryDy=0;" edge="1" parent="1" source="3xgvSFUE_ccLqfkjxWqY-4" target="3xgvSFUE_ccLqfkjxWqY-1">
          <mxGeometry width="50" height="50" relative="1" as="geometry">
            <mxPoint x="510" y="560" as="sourcePoint" />
            <mxPoint x="560" y="510" as="targetPoint" />
            <Array as="points">
              <mxPoint x="680" y="590" />
            </Array>
          </mxGeometry>
        </mxCell>
        <mxCell id="3xgvSFUE_ccLqfkjxWqY-14" value="" style="rounded=0;whiteSpace=wrap;html=1;" vertex="1" parent="1">
          <mxGeometry x="200" y="400" width="160" height="110" as="geometry" />
        </mxCell>
        <mxCell id="3xgvSFUE_ccLqfkjxWqY-15" value="pressButton(int button)" style="text;html=1;align=center;verticalAlign=middle;whiteSpace=wrap;rounded=0;" vertex="1" parent="1">
          <mxGeometry x="230" y="470" width="130" height="30" as="geometry" />
        </mxCell>
        <mxCell id="3xgvSFUE_ccLqfkjxWqY-16" value="" style="endArrow=none;html=1;rounded=0;exitX=0;exitY=0.5;exitDx=0;exitDy=0;entryX=1;entryY=0.5;entryDx=0;entryDy=0;" edge="1" parent="1" source="3xgvSFUE_ccLqfkjxWqY-14" target="3xgvSFUE_ccLqfkjxWqY-14">
          <mxGeometry width="50" height="50" relative="1" as="geometry">
            <mxPoint x="510" y="560" as="sourcePoint" />
            <mxPoint x="560" y="510" as="targetPoint" />
          </mxGeometry>
        </mxCell>
        <mxCell id="3xgvSFUE_ccLqfkjxWqY-17" value="Internal Button" style="text;html=1;align=center;verticalAlign=middle;whiteSpace=wrap;rounded=0;" vertex="1" parent="1">
          <mxGeometry x="245" y="370" width="90" height="30" as="geometry" />
        </mxCell>
        <mxCell id="3xgvSFUE_ccLqfkjxWqY-18" value="" style="edgeStyle=elbowEdgeStyle;elbow=horizontal;endArrow=classic;html=1;curved=0;rounded=0;endSize=8;startSize=8;exitX=-0.001;exitY=0.222;exitDx=0;exitDy=0;exitPerimeter=0;entryX=0.999;entryY=0.189;entryDx=0;entryDy=0;entryPerimeter=0;" edge="1" parent="1" source="3xgvSFUE_ccLqfkjxWqY-4" target="3xgvSFUE_ccLqfkjxWqY-14">
          <mxGeometry width="50" height="50" relative="1" as="geometry">
            <mxPoint x="510" y="560" as="sourcePoint" />
            <mxPoint x="560" y="510" as="targetPoint" />
          </mxGeometry>
        </mxCell>
        <mxCell id="3xgvSFUE_ccLqfkjxWqY-19" value="" style="rounded=0;whiteSpace=wrap;html=1;" vertex="1" parent="1">
          <mxGeometry x="195" y="707.5" width="140" height="120" as="geometry" />
        </mxCell>
        <mxCell id="3xgvSFUE_ccLqfkjxWqY-20" value="ElevatorCar obj;&lt;div&gt;lookAlgorithm;&lt;/div&gt;" style="text;html=1;align=center;verticalAlign=middle;whiteSpace=wrap;rounded=0;" vertex="1" parent="1">
          <mxGeometry x="215" y="717.5" width="110" height="30" as="geometry" />
        </mxCell>
        <mxCell id="3xgvSFUE_ccLqfkjxWqY-21" value="" style="endArrow=none;html=1;rounded=0;exitX=0.007;exitY=0.446;exitDx=0;exitDy=0;exitPerimeter=0;entryX=0.996;entryY=0.446;entryDx=0;entryDy=0;entryPerimeter=0;" edge="1" parent="1">
          <mxGeometry width="50" height="50" relative="1" as="geometry">
            <mxPoint x="195" y="757.4999999999999" as="sourcePoint" />
            <mxPoint x="333.46000000000004" y="757.4999999999999" as="targetPoint" />
          </mxGeometry>
        </mxCell>
        <mxCell id="3xgvSFUE_ccLqfkjxWqY-22" value="submitNewReq(floor,dir);&lt;div&gt;controlElevatorCar();&lt;/div&gt;" style="text;html=1;align=center;verticalAlign=middle;whiteSpace=wrap;rounded=0;" vertex="1" parent="1">
          <mxGeometry x="200" y="772.5" width="130" height="30" as="geometry" />
        </mxCell>
        <mxCell id="3xgvSFUE_ccLqfkjxWqY-23" value="Elevator Controller;" style="text;html=1;align=center;verticalAlign=middle;whiteSpace=wrap;rounded=0;" vertex="1" parent="1">
          <mxGeometry x="210" y="672.5" width="110" height="30" as="geometry" />
        </mxCell>
        <mxCell id="3xgvSFUE_ccLqfkjxWqY-25" value="" style="rounded=0;whiteSpace=wrap;html=1;" vertex="1" parent="1">
          <mxGeometry x="-50" y="560" width="160" height="100" as="geometry" />
        </mxCell>
        <mxCell id="3xgvSFUE_ccLqfkjxWqY-27" value="List&amp;lt;ElevatorController&amp;gt; list;" style="text;html=1;align=center;verticalAlign=middle;whiteSpace=wrap;rounded=0;" vertex="1" parent="1">
          <mxGeometry x="-50" y="570" width="160" height="30" as="geometry" />
        </mxCell>
        <mxCell id="3xgvSFUE_ccLqfkjxWqY-28" value="" style="endArrow=none;html=1;rounded=0;entryX=1;entryY=1;entryDx=0;entryDy=0;" edge="1" parent="1" target="3xgvSFUE_ccLqfkjxWqY-27">
          <mxGeometry width="50" height="50" relative="1" as="geometry">
            <mxPoint x="-49" y="600" as="sourcePoint" />
            <mxPoint x="230" y="630" as="targetPoint" />
          </mxGeometry>
        </mxCell>
        <mxCell id="3xgvSFUE_ccLqfkjxWqY-29" value="submitReq(int id);" style="text;html=1;align=center;verticalAlign=middle;whiteSpace=wrap;rounded=0;" vertex="1" parent="1">
          <mxGeometry x="-20" y="620" width="100" height="30" as="geometry" />
        </mxCell>
        <mxCell id="3xgvSFUE_ccLqfkjxWqY-30" value="InternalButtonDispacher obj;" style="text;html=1;align=center;verticalAlign=middle;whiteSpace=wrap;rounded=0;" vertex="1" parent="1">
          <mxGeometry x="200" y="410" width="170" height="30" as="geometry" />
        </mxCell>
        <mxCell id="3xgvSFUE_ccLqfkjxWqY-33" value="InternalButtonDispacher" style="text;html=1;align=center;verticalAlign=middle;whiteSpace=wrap;rounded=0;" vertex="1" parent="1">
          <mxGeometry x="-40" y="530" width="140" height="30" as="geometry" />
        </mxCell>
        <mxCell id="3xgvSFUE_ccLqfkjxWqY-34" value="" style="edgeStyle=segmentEdgeStyle;endArrow=classic;html=1;curved=0;rounded=0;endSize=8;startSize=8;exitX=0;exitY=1;exitDx=0;exitDy=0;entryX=0.5;entryY=0;entryDx=0;entryDy=0;" edge="1" parent="1" source="3xgvSFUE_ccLqfkjxWqY-30" target="3xgvSFUE_ccLqfkjxWqY-33">
          <mxGeometry width="50" height="50" relative="1" as="geometry">
            <mxPoint x="180" y="680" as="sourcePoint" />
            <mxPoint x="230" y="630" as="targetPoint" />
          </mxGeometry>
        </mxCell>
        <mxCell id="3xgvSFUE_ccLqfkjxWqY-35" value="" style="rounded=0;whiteSpace=wrap;html=1;" vertex="1" parent="1">
          <mxGeometry x="-380" y="560" width="180" height="100" as="geometry" />
        </mxCell>
        <mxCell id="3xgvSFUE_ccLqfkjxWqY-36" value="List&amp;lt;ElevatorController&amp;gt; list;" style="text;html=1;align=center;verticalAlign=middle;whiteSpace=wrap;rounded=0;" vertex="1" parent="1">
          <mxGeometry x="-380" y="570" width="160" height="30" as="geometry" />
        </mxCell>
        <mxCell id="3xgvSFUE_ccLqfkjxWqY-37" value="" style="endArrow=none;html=1;rounded=0;entryX=0.988;entryY=0.408;entryDx=0;entryDy=0;entryPerimeter=0;" edge="1" parent="1" target="3xgvSFUE_ccLqfkjxWqY-35">
          <mxGeometry width="50" height="50" relative="1" as="geometry">
            <mxPoint x="-379" y="600" as="sourcePoint" />
            <mxPoint x="-100" y="630" as="targetPoint" />
          </mxGeometry>
        </mxCell>
        <mxCell id="3xgvSFUE_ccLqfkjxWqY-38" value="submitReq(int floor,Direction dir);" style="text;html=1;align=center;verticalAlign=middle;whiteSpace=wrap;rounded=0;" vertex="1" parent="1">
          <mxGeometry x="-380" y="610" width="180" height="30" as="geometry" />
        </mxCell>
        <mxCell id="3xgvSFUE_ccLqfkjxWqY-39" value="ExternalButtonDispacher" style="text;html=1;align=center;verticalAlign=middle;whiteSpace=wrap;rounded=0;" vertex="1" parent="1">
          <mxGeometry x="-370" y="530" width="140" height="30" as="geometry" />
        </mxCell>
        <mxCell id="3xgvSFUE_ccLqfkjxWqY-40" value="" style="rounded=0;whiteSpace=wrap;html=1;" vertex="1" parent="1">
          <mxGeometry x="-440" y="735" width="120" height="60" as="geometry" />
        </mxCell>
        <mxCell id="3xgvSFUE_ccLqfkjxWqY-41" value="oddEven Algo" style="text;html=1;align=center;verticalAlign=middle;whiteSpace=wrap;rounded=0;" vertex="1" parent="1">
          <mxGeometry x="-435" y="735" width="110" height="30" as="geometry" />
        </mxCell>
        <mxCell id="3xgvSFUE_ccLqfkjxWqY-42" value="" style="endArrow=none;html=1;rounded=0;exitX=0;exitY=0.5;exitDx=0;exitDy=0;entryX=1;entryY=0.5;entryDx=0;entryDy=0;" edge="1" parent="1" source="3xgvSFUE_ccLqfkjxWqY-40" target="3xgvSFUE_ccLqfkjxWqY-40">
          <mxGeometry width="50" height="50" relative="1" as="geometry">
            <mxPoint x="-70" y="665" as="sourcePoint" />
            <mxPoint x="-20" y="615" as="targetPoint" />
            <Array as="points">
              <mxPoint x="-370" y="765" />
            </Array>
          </mxGeometry>
        </mxCell>
        <mxCell id="3xgvSFUE_ccLqfkjxWqY-43" value="" style="rounded=0;whiteSpace=wrap;html=1;" vertex="1" parent="1">
          <mxGeometry x="-270" y="740" width="120" height="60" as="geometry" />
        </mxCell>
        <mxCell id="3xgvSFUE_ccLqfkjxWqY-44" value="fixedFloor Algo" style="text;html=1;align=center;verticalAlign=middle;whiteSpace=wrap;rounded=0;" vertex="1" parent="1">
          <mxGeometry x="-265" y="740" width="110" height="30" as="geometry" />
        </mxCell>
        <mxCell id="3xgvSFUE_ccLqfkjxWqY-45" value="" style="endArrow=none;html=1;rounded=0;exitX=0;exitY=0.5;exitDx=0;exitDy=0;entryX=1;entryY=0.5;entryDx=0;entryDy=0;" edge="1" parent="1" source="3xgvSFUE_ccLqfkjxWqY-43" target="3xgvSFUE_ccLqfkjxWqY-43">
          <mxGeometry width="50" height="50" relative="1" as="geometry">
            <mxPoint x="100" y="670" as="sourcePoint" />
            <mxPoint x="150" y="620" as="targetPoint" />
          </mxGeometry>
        </mxCell>
        <mxCell id="3xgvSFUE_ccLqfkjxWqY-46" value="" style="shape=flexArrow;endArrow=classic;html=1;rounded=0;" edge="1" parent="1">
          <mxGeometry width="50" height="50" relative="1" as="geometry">
            <mxPoint x="-370" y="725" as="sourcePoint" />
            <mxPoint x="-320" y="675" as="targetPoint" />
          </mxGeometry>
        </mxCell>
        <mxCell id="3xgvSFUE_ccLqfkjxWqY-47" value="" style="shape=flexArrow;endArrow=classic;html=1;rounded=0;" edge="1" parent="1">
          <mxGeometry width="50" height="50" relative="1" as="geometry">
            <mxPoint x="-220" y="730" as="sourcePoint" />
            <mxPoint x="-260" y="680" as="targetPoint" />
          </mxGeometry>
        </mxCell>
        <mxCell id="3xgvSFUE_ccLqfkjxWqY-49" value="" style="endArrow=classic;html=1;rounded=0;exitX=1.009;exitY=0.444;exitDx=0;exitDy=0;exitPerimeter=0;entryX=-0.016;entryY=0.667;entryDx=0;entryDy=0;entryPerimeter=0;" edge="1" parent="1" source="3xgvSFUE_ccLqfkjxWqY-19" target="3xgvSFUE_ccLqfkjxWqY-4">
          <mxGeometry width="50" height="50" relative="1" as="geometry">
            <mxPoint x="50" y="680" as="sourcePoint" />
            <mxPoint x="100" y="630" as="targetPoint" />
          </mxGeometry>
        </mxCell>
        <mxCell id="3xgvSFUE_ccLqfkjxWqY-50" value="" style="edgeStyle=elbowEdgeStyle;elbow=horizontal;endArrow=classic;html=1;curved=0;rounded=0;endSize=8;startSize=8;exitX=1;exitY=1;exitDx=0;exitDy=0;" edge="1" parent="1" source="3xgvSFUE_ccLqfkjxWqY-38">
          <mxGeometry width="50" height="50" relative="1" as="geometry">
            <mxPoint x="50" y="680" as="sourcePoint" />
            <mxPoint x="200" y="760" as="targetPoint" />
            <Array as="points">
              <mxPoint x="-60" y="710" />
            </Array>
          </mxGeometry>
        </mxCell>
        <mxCell id="3xgvSFUE_ccLqfkjxWqY-52" value="" style="rounded=0;whiteSpace=wrap;html=1;" vertex="1" parent="1">
          <mxGeometry x="-330" y="370" width="160" height="110" as="geometry" />
        </mxCell>
        <mxCell id="3xgvSFUE_ccLqfkjxWqY-53" value="pressButton(floor,direction)" style="text;html=1;align=center;verticalAlign=middle;whiteSpace=wrap;rounded=0;" vertex="1" parent="1">
          <mxGeometry x="-315" y="440" width="130" height="30" as="geometry" />
        </mxCell>
        <mxCell id="3xgvSFUE_ccLqfkjxWqY-54" value="" style="endArrow=none;html=1;rounded=0;exitX=0;exitY=0.5;exitDx=0;exitDy=0;entryX=1;entryY=0.5;entryDx=0;entryDy=0;" edge="1" parent="1" source="3xgvSFUE_ccLqfkjxWqY-52" target="3xgvSFUE_ccLqfkjxWqY-52">
          <mxGeometry width="50" height="50" relative="1" as="geometry">
            <mxPoint x="-20" y="530" as="sourcePoint" />
            <mxPoint x="30" y="480" as="targetPoint" />
          </mxGeometry>
        </mxCell>
        <mxCell id="3xgvSFUE_ccLqfkjxWqY-55" value="External Button" style="text;html=1;align=center;verticalAlign=middle;whiteSpace=wrap;rounded=0;" vertex="1" parent="1">
          <mxGeometry x="-285" y="340" width="90" height="30" as="geometry" />
        </mxCell>
        <mxCell id="3xgvSFUE_ccLqfkjxWqY-56" value="ExternalButtonDispacher obj;" style="text;html=1;align=center;verticalAlign=middle;whiteSpace=wrap;rounded=0;" vertex="1" parent="1">
          <mxGeometry x="-335" y="380" width="170" height="30" as="geometry" />
        </mxCell>
        <mxCell id="3xgvSFUE_ccLqfkjxWqY-57" value="" style="endArrow=classic;html=1;rounded=0;exitX=0.304;exitY=1.015;exitDx=0;exitDy=0;exitPerimeter=0;entryX=0.633;entryY=0;entryDx=0;entryDy=0;entryPerimeter=0;" edge="1" parent="1" source="3xgvSFUE_ccLqfkjxWqY-52" target="3xgvSFUE_ccLqfkjxWqY-39">
          <mxGeometry width="50" height="50" relative="1" as="geometry">
            <mxPoint x="50" y="680" as="sourcePoint" />
            <mxPoint x="100" y="630" as="targetPoint" />
          </mxGeometry>
        </mxCell>
        <mxCell id="3xgvSFUE_ccLqfkjxWqY-58" value="" style="rounded=0;whiteSpace=wrap;html=1;" vertex="1" parent="1">
          <mxGeometry x="-302.5" y="220" width="120" height="60" as="geometry" />
        </mxCell>
        <mxCell id="3xgvSFUE_ccLqfkjxWqY-59" value="floorId;" style="text;html=1;align=center;verticalAlign=middle;whiteSpace=wrap;rounded=0;" vertex="1" parent="1">
          <mxGeometry x="-297.5" y="220" width="110" height="30" as="geometry" />
        </mxCell>
        <mxCell id="3xgvSFUE_ccLqfkjxWqY-60" value="" style="endArrow=none;html=1;rounded=0;exitX=0;exitY=0.5;exitDx=0;exitDy=0;entryX=1;entryY=0.5;entryDx=0;entryDy=0;" edge="1" parent="1" source="3xgvSFUE_ccLqfkjxWqY-58" target="3xgvSFUE_ccLqfkjxWqY-58">
          <mxGeometry width="50" height="50" relative="1" as="geometry">
            <mxPoint x="67.5" y="150" as="sourcePoint" />
            <mxPoint x="117.5" y="100" as="targetPoint" />
          </mxGeometry>
        </mxCell>
        <mxCell id="3xgvSFUE_ccLqfkjxWqY-61" value="ExternalButton button;" style="text;html=1;align=center;verticalAlign=middle;whiteSpace=wrap;rounded=0;" vertex="1" parent="1">
          <mxGeometry x="-325" y="250" width="165" height="30" as="geometry" />
        </mxCell>
        <mxCell id="3xgvSFUE_ccLqfkjxWqY-62" value="Floor" style="text;html=1;align=center;verticalAlign=middle;whiteSpace=wrap;rounded=0;" vertex="1" parent="1">
          <mxGeometry x="-285" y="190" width="60" height="30" as="geometry" />
        </mxCell>
        <mxCell id="3xgvSFUE_ccLqfkjxWqY-63" value="" style="endArrow=classic;html=1;rounded=0;exitX=0.5;exitY=1;exitDx=0;exitDy=0;" edge="1" parent="1" source="3xgvSFUE_ccLqfkjxWqY-61">
          <mxGeometry width="50" height="50" relative="1" as="geometry">
            <mxPoint x="50" y="290" as="sourcePoint" />
            <mxPoint x="-242" y="350" as="targetPoint" />
          </mxGeometry>
        </mxCell>
        <mxCell id="3xgvSFUE_ccLqfkjxWqY-64" value="" style="rounded=0;whiteSpace=wrap;html=1;" vertex="1" parent="1">
          <mxGeometry x="-67.5" y="230" width="120" height="40" as="geometry" />
        </mxCell>
        <mxCell id="3xgvSFUE_ccLqfkjxWqY-65" value="List&amp;lt;Floor&amp;gt; list" style="text;html=1;align=center;verticalAlign=middle;whiteSpace=wrap;rounded=0;" vertex="1" parent="1">
          <mxGeometry x="-62.5" y="230" width="110" height="30" as="geometry" />
        </mxCell>
        <mxCell id="3xgvSFUE_ccLqfkjxWqY-68" value="Building" style="text;html=1;align=center;verticalAlign=middle;whiteSpace=wrap;rounded=0;" vertex="1" parent="1">
          <mxGeometry x="-40" y="200" width="60" height="30" as="geometry" />
        </mxCell>
        <mxCell id="3xgvSFUE_ccLqfkjxWqY-69" value="" style="endArrow=classic;html=1;rounded=0;exitX=0;exitY=0.25;exitDx=0;exitDy=0;" edge="1" parent="1" source="3xgvSFUE_ccLqfkjxWqY-64">
          <mxGeometry width="50" height="50" relative="1" as="geometry">
            <mxPoint x="50" y="290" as="sourcePoint" />
            <mxPoint x="-182" y="240" as="targetPoint" />
          </mxGeometry>
        </mxCell>
      </root>
    </mxGraphModel>
  </diagram>
</mxfile>
